<svg xmlns:dc="http://purl.org/dc/elements/1.1/" xmlns:cc="http://creativecommons.org/ns#" xmlns:rdf="http://www.w3.org/1999/02/22-rdf-syntax-ns#" xmlns:svg="http://www.w3.org/2000/svg" xmlns="http://www.w3.org/2000/svg" xmlns:sodipodi="http://sodipodi.sourceforge.net/DTD/sodipodi-0.dtd" xmlns:inkscape="http://www.inkscape.org/namespaces/inkscape" viewBox="0 0 26.458401 33.0729125" version="1.1" x="0px" y="0px"><g transform="translate(1422.9263,517.0664)"><path style="opacity:1;fill:#ffffff;fill-opacity:1;fill-rule:evenodd;stroke:none;stroke-width:10;stroke-linecap:round;stroke-linejoin:round;stroke-miterlimit:4;stroke-dasharray:none;stroke-dashoffset:0;stroke-opacity:1;paint-order:normal" d="m -1397.6904,-515.97034 a 0.86266024,0.86266024 0 0 0 -0.4283,0.13146 c -1.8005,1.13164 -3.6008,2.26324 -5.4011,3.39488 a 11.180668,11.180668 0 0 0 -5.774,-1.62094 11.180668,11.180668 0 0 0 -11.1804,11.18065 11.180668,11.180668 0 0 0 2.6263,7.18214 c 3.1555,-2.07932 8.0463,-6.61063 13.0057,-12.00311 l 0.435,0.40677 c -4.6697,5.47841 -9.1279,10.01293 -12.4785,12.60315 a 11.180668,11.180668 0 0 0 7.5919,2.99169 11.180668,11.180668 0 0 0 11.1807,-11.18064 11.180668,11.180668 0 0 0 -1.8501,-6.1312 l 3.063,-5.68429 a 0.86266024,0.86266024 0 0 0 -0.7902,-1.27051 z m -19.1953,21.27495 a 11.180668,11.180668 0 0 1 -0.9622,-1.00681 c -3.0843,2.03228 -4.5112,1.72385 -2.7214,-2.41382 -0.6361,0.97386 -2.7074,4.34673 -1.802,5.36034 0.7824,0.98372 2.7707,0.15933 5.4856,-1.93971 z m 19.2263,-20.41337 -3.4061,6.32084 0.9013,2.13758 -2.4037,2.06151 0.1596,-1.33652 -0.6385,-0.60867 0.267,-0.42332 -2.6711,-2.49805 -0.4044,0.29464 -0.65,-0.5963 -1.3228,0.24876 1.8963,-2.53589 2.1928,0.75633 c 2.0266,-1.27369 4.0527,-2.54725 6.0793,-3.82091 z"/></g><text x="0" y="41.458330000000004" fill="#ffffff" font-size="5px" font-weight="bold" font-family="'Helvetica Neue', Helvetica, Arial-Unicode, Arial, Sans-serif">Created by Yoga Ekatama</text><text x="0" y="46.458330000000004" fill="#000000" font-size="5px" font-weight="bold" font-family="'Helvetica Neue', Helvetica, Arial-Unicode, Arial, Sans-serif">from the Noun Project</text></svg>